<svg width="192" height="64" viewBox="0 0 192 64" fill="none" xmlns="http://www.w3.org/2000/svg">
<path d="M108.398 32.3385C108.401 37.3552 106.744 42.2348 103.68 46.2319L108.054 50.56C112.264 45.3934 114.56 38.9567 114.56 32.32C114.56 25.6833 112.264 19.2466 108.054 14.08L103.68 18.4081C106.755 22.4136 108.413 27.3086 108.398 32.3385Z" fill="#FCFDFD"/>
<path d="M16.3145 16.0001C13.8041 16.0018 11.3278 16.5822 9.07832 17.6963C6.8288 18.8103 4.86658 20.428 3.34422 22.4235C1.82187 24.419 0.780395 26.7386 0.300747 29.2019C-0.178901 31.6653 -0.0837909 34.206 0.578682 36.6267C1.24115 39.0473 2.45317 41.2826 4.12045 43.1588C5.78773 45.035 7.86537 46.5015 10.1919 47.4444C12.5184 48.3872 15.0311 48.781 17.5346 48.5952C20.0382 48.4093 22.4651 47.6487 24.6268 46.3727L26.3092 45.376V47.7617H32.64V16.5296H26.3092V19.2454L24.6268 18.2488C22.1081 16.767 19.2369 15.9903 16.3145 16.0001ZM23.3806 39.3837C21.7482 41.0116 19.6019 42.0235 17.3071 42.2472C15.0123 42.4709 12.7109 41.8926 10.7947 40.6107C8.87844 39.3288 7.46594 37.4226 6.79765 35.2166C6.12936 33.0106 6.24659 30.6413 7.1294 28.512C8.0122 26.3827 9.60601 24.6251 11.6394 23.5385C13.6728 22.4519 16.0201 22.1034 18.2816 22.5524C20.5432 23.0015 22.5791 24.2202 24.0428 26.0011C25.5064 27.7821 26.3074 30.0151 26.3092 32.3201C26.3133 33.6327 26.0565 34.933 25.5538 36.1456C25.0511 37.3582 24.3123 38.4589 23.3806 39.3837Z" fill="#FCFDFD"/>
<path d="M154.24 32.32C154.24 29.0922 153.283 25.9369 151.49 23.2531C149.696 20.5693 147.148 18.4775 144.165 17.2423C141.183 16.0071 137.902 15.6839 134.736 16.3136C131.57 16.9433 128.663 18.4976 126.38 20.78C124.098 23.0624 122.543 25.9704 121.914 29.1361C121.284 32.3019 121.607 35.5833 122.842 38.5654C124.078 41.5475 126.169 44.0963 128.853 45.8896C131.537 47.6828 134.692 48.64 137.92 48.64C142.247 48.6351 146.395 46.9141 149.455 43.8545C152.514 40.795 154.235 36.6468 154.24 32.32ZM137.92 42.2864C135.949 42.2864 134.022 41.7019 132.383 40.6068C130.744 39.5116 129.467 37.9551 128.712 36.134C127.958 34.3129 127.761 32.309 128.145 30.3757C128.53 28.4424 129.479 26.6665 130.873 25.2727C132.267 23.8789 134.042 22.9297 135.976 22.5451C137.909 22.1605 139.913 22.3579 141.734 23.1122C143.555 23.8666 145.112 25.144 146.207 26.783C147.302 28.4219 147.887 30.3488 147.887 32.32C147.889 33.6304 147.633 34.9284 147.133 36.1397C146.633 37.3511 145.9 38.452 144.974 39.3794C144.048 40.3069 142.949 41.0426 141.738 41.5447C140.528 42.0467 139.23 42.3051 137.92 42.3051V42.2864Z" fill="#FCFDFD"/>
<path d="M56.3204 22.5357C58.5652 22.1477 60.8748 22.5378 62.869 23.6418L66.5601 18.4069C64.0017 16.832 61.0582 15.9989 58.0563 16C55.1038 16.0039 52.2056 16.7956 49.659 18.2938L47.967 19.293V16.509H41.6001V48H47.967V31.6606C48.1447 29.4262 49.059 27.3146 50.5659 25.6589C52.0727 24.0033 54.0863 22.8978 56.2891 22.5169L56.3204 22.5357Z" fill="#FCFDFD"/>
<path d="M101.76 32.32C101.76 29.0922 100.803 25.9369 99.0097 23.2531C97.2165 20.5693 94.6676 18.4775 91.6855 17.2423C88.7034 16.0071 85.422 15.6839 82.2563 16.3136C79.0905 16.9433 76.1825 18.4976 73.9002 20.78C71.6178 23.0624 70.0634 25.9704 69.4337 29.1361C68.804 32.3019 69.1272 35.5833 70.3624 38.5654C71.5976 41.5475 73.6894 44.0963 76.3732 45.8896C79.057 47.6828 82.2123 48.64 85.4401 48.64C89.7669 48.6351 93.9151 46.9141 96.9747 43.8545C100.034 40.795 101.755 36.6468 101.76 32.32ZM75.5013 31.3C75.6028 30.3132 75.8501 29.347 76.2352 28.4328C77.0069 26.6309 78.2904 25.0952 79.9267 24.0159C81.5629 22.9366 83.48 22.3613 85.4401 22.3613C87.4003 22.3613 89.3173 22.9366 90.9536 24.0159C92.5899 25.0952 93.8734 26.6309 94.645 28.4328C95.0301 29.347 95.2775 30.3132 95.3789 31.3C95.41 31.6359 95.4287 31.9779 95.4287 32.32C95.4254 33.2607 95.2915 34.1963 95.0306 35.1001L94.502 36.9038L89.9804 32.3822L85.5023 36.8602L90.0239 41.3818L88.2203 41.9043C86.8147 42.3131 85.3364 42.4077 83.8902 42.1815C82.444 41.9554 81.0652 41.4139 79.8516 40.5955C78.6379 39.7771 77.6191 38.7018 76.8674 37.4458C76.1156 36.1898 75.6492 34.7839 75.5013 33.3276C75.4702 32.9917 75.4516 32.6496 75.4516 32.3076C75.4516 31.9655 75.4702 31.6359 75.5013 31.3Z" fill="#FCFDFD"/>
<path d="M191.159 38.4024L176.903 29.1416L169.803 24.5268C171.055 23.5297 172.529 22.8489 174.1 22.5421C175.672 22.2353 177.293 22.3115 178.829 22.7642C180.364 23.2169 181.768 24.0329 182.921 25.143C184.075 26.2531 184.943 27.6247 185.454 29.1416H192C191.318 25.6906 189.537 22.5529 186.925 20.1968C184.312 17.8408 181.008 16.3928 177.505 16.0692C174.002 15.7455 170.488 16.5635 167.488 18.4009C164.488 20.2384 162.163 22.9968 160.859 26.2644L175.016 35.4691L182.228 40.1711C180.971 41.1779 179.488 41.8649 177.907 42.1733C176.326 42.4817 174.694 42.4023 173.151 41.9419C171.607 41.4815 170.198 40.6538 169.045 39.5298C167.891 38.4057 167.027 37.0188 166.527 35.4878H160C160.682 38.9361 162.459 42.0721 165.067 44.4289C167.675 46.7858 170.975 48.2374 174.474 48.5678C177.974 48.8981 181.487 48.0895 184.49 46.2624C187.493 44.4352 189.825 41.6872 191.141 38.4273L191.159 38.4024Z" fill="#FCFDFD"/>
</svg>
