<svg width="24" height="24" viewBox="0 0 24 24" fill="none" xmlns="http://www.w3.org/2000/svg">
<path d="M5.19186 5.19201L4.1278 4.12795C4.12335 4.13264 4.11875 4.13667 4.1143 4.14112C2.0234 6.2319 0.846018 9.0659 0.839868 12.0228C0.833718 14.9797 1.99931 17.8185 4.08149 19.918L5.14555 18.8539C3.34051 17.0358 2.3314 14.5752 2.34009 12.0132C2.34877 9.4512 3.37454 6.99752 5.19186 5.19164V5.19201Z" fill="#F2F2F2"/>
<path d="M19.9251 4.14131C19.9064 4.12256 19.8868 4.10414 19.8678 4.08534L18.8037 5.1494C19.7146 6.04311 20.4394 7.10838 20.9363 8.28372C21.4333 9.45906 21.6925 10.7212 21.699 11.9973C21.7056 13.2733 21.4593 14.538 20.9744 15.7184C20.4896 16.8988 19.7757 17.9714 18.874 18.8744L19.9381 19.9385C22.0289 17.8407 23.2018 14.999 23.1993 12.0373C23.1969 9.07557 22.0192 6.23584 19.9249 4.14159L19.9251 4.14131Z" fill="#F2F2F2"/>
<path d="M7.19653 7.19634C5.91161 8.47108 5.18504 10.2036 5.17635 12.0136C5.16766 13.8235 5.87755 15.5629 7.15017 16.85L8.21035 15.7898C7.21934 14.7837 6.66772 13.4257 6.67641 12.0136C6.6851 10.6014 7.2534 9.25032 8.25671 8.25651L7.19653 7.19634Z" fill="#F2F2F2"/>
<path d="M15.7393 8.21377C16.2471 8.70536 16.6521 9.29297 16.9309 9.94245C17.2097 10.5919 17.3566 11.2903 17.3632 11.9971C17.3697 12.7039 17.2357 13.4049 16.969 14.0594C16.7023 14.7139 16.3082 15.3089 15.8096 15.8099L16.8702 16.8703C17.5083 16.2303 18.013 15.47 18.3552 14.6336C18.6974 13.7971 18.8702 12.9011 18.8637 11.9974C18.8571 11.0937 18.6714 10.2002 18.3171 9.36882C17.9629 8.5374 17.4472 7.78454 16.7999 7.15383L15.7393 8.21377Z" fill="#F2F2F2"/>
<path d="M13.8171 10.136C13.3774 9.72352 12.809 9.47523 12.2077 9.43293C11.6064 9.39064 11.0088 9.55693 10.5158 9.90378C10.0227 10.2506 9.66431 10.7568 9.50093 11.3371C9.33755 11.9174 9.37919 12.5362 9.61883 13.0893C9.85847 13.6425 10.2815 14.0961 10.8165 14.3738C11.3516 14.6515 11.966 14.7362 12.5563 14.6138C13.1465 14.4913 13.6765 14.1691 14.0569 13.7015C14.4374 13.2338 14.645 12.6494 14.6448 12.0465C14.645 11.6884 14.5717 11.334 14.4293 11.0053C14.2869 10.6767 14.0785 10.3808 13.8171 10.136V10.136ZM12.0198 13.1715C11.7973 13.1715 11.5798 13.1056 11.3948 12.982C11.2097 12.8583 11.0656 12.6826 10.9804 12.4771C10.8953 12.2715 10.873 12.0453 10.9164 11.8271C10.9598 11.6088 11.0669 11.4084 11.2243 11.2511C11.3816 11.0937 11.5821 10.9866 11.8003 10.9432C12.0185 10.8998 12.2447 10.922 12.4503 11.0072C12.6559 11.0923 12.8316 11.2365 12.9552 11.4215C13.0788 11.6065 13.1448 11.824 13.1448 12.0465C13.1448 12.3449 13.0262 12.6311 12.8153 12.842C12.6043 13.053 12.3181 13.1715 12.0198 13.1715Z" fill="#F2F2F2"/>
</svg>
